<svg viewBox="0 0 64 64" fill="none" xmlns="http://www.w3.org/2000/svg">
<path d="M45.2683 0.333374H18.7316C7.20498 0.333374 0.333313 7.20504 0.333313 18.7317V45.2367C0.333313 56.795 7.20498 63.6667 18.7316 63.6667H45.2366C56.7633 63.6667 63.635 56.795 63.635 45.2684V18.7317C63.6666 7.20504 56.795 0.333374 45.2683 0.333374ZM51 34.375H18.7316L28.2633 43.9067C29.1816 44.825 29.1816 46.345 28.2633 47.2634C27.7883 47.7384 27.1866 47.96 26.585 47.96C25.9833 47.96 25.3816 47.7384 24.9066 47.2634L11.3216 33.6784C10.8783 33.235 10.625 32.6334 10.625 32C10.625 31.3667 10.8783 30.765 11.3216 30.3217L24.9066 16.7367C25.825 15.8184 27.345 15.8184 28.2633 16.7367C29.1816 17.655 29.1816 19.175 28.2633 20.0934L18.7316 29.625H51C52.2983 29.625 53.375 30.7017 53.375 32C53.375 33.2984 52.2983 34.375 51 34.375Z" fill="#FEF5DE"/>
</svg>
