<svg viewBox="0 0 64 64" fill="none" xmlns="http://www.w3.org/2000/svg">
<path d="M45.2683 0.333374H18.7316C7.20492 0.333374 0.333252 7.20504 0.333252 18.7317V45.2367C0.333252 56.795 7.20492 63.6667 18.7316 63.6667H45.2366C56.7633 63.6667 63.6349 56.795 63.6349 45.2684V18.7317C63.6666 7.20504 56.7949 0.333374 45.2683 0.333374ZM52.6783 33.6784L39.0932 47.2634C38.6182 47.7384 38.0166 47.96 37.4149 47.96C36.8133 47.96 36.2116 47.7384 35.7366 47.2634C34.8183 46.345 34.8183 44.825 35.7366 43.9067L45.2683 34.375H12.9999C11.7016 34.375 10.6249 33.2984 10.6249 32C10.6249 30.7017 11.7016 29.625 12.9999 29.625H45.2683L35.7366 20.0934C34.8183 19.175 34.8183 17.655 35.7366 16.7367C36.6549 15.8184 38.1749 15.8184 39.0932 16.7367L52.6783 30.3217C53.1216 30.765 53.3749 31.3667 53.3749 32C53.3749 32.6334 53.1216 33.235 52.6783 33.6784Z" fill="#FEF5DE"/>
</svg>
