<svg viewBox="0 0 29 29" fill="none" xmlns="http://www.w3.org/2000/svg">
<mask id="mask0_101_666" style="mask-type:luminance" maskUnits="userSpaceOnUse" x="0" y="0" width="29" height="29">
<path fill-rule="evenodd" clip-rule="evenodd" d="M0.750549 0.750275H28.9375V28.9371H0.750549V0.750275Z" fill="white"/>
</mask>
<g mask="url(#mask0_101_666)">
<path fill-rule="evenodd" clip-rule="evenodd" d="M3.99429 4.95848C3.99704 4.95848 3.92829 5.02998 3.84167 5.11523C3.50892 5.43835 2.82004 6.11073 2.81317 7.51735C2.80217 9.48498 4.09604 13.1384 10.3262 19.3671C16.5274 25.5656 20.1753 26.8746 22.147 26.8746H22.1759C23.5825 26.8677 24.2535 26.1775 24.578 25.8461C24.677 25.7444 24.7568 25.6701 24.8132 25.6234C26.1827 24.2456 26.8839 23.2199 26.877 22.5626C26.8674 21.8916 26.0328 21.0982 24.8792 20.001C24.512 19.6517 24.1133 19.2722 23.6925 18.8515C22.6022 17.7639 22.0618 17.9495 20.8738 18.3675C19.2307 18.9436 16.9757 19.7274 13.4722 16.2225C9.96316 12.7162 10.7483 10.464 11.323 8.82085C11.7383 7.63285 11.928 7.0911 10.8363 5.99935C10.4087 5.5731 10.025 5.16885 9.67166 4.7976C8.58129 3.65085 7.79479 2.82173 7.12791 2.8121H7.11691C6.45829 2.8121 5.43529 3.5161 3.98742 4.96398C3.99154 4.95985 3.99291 4.95848 3.99429 4.95848V4.95848ZM22.1484 28.9371C18.7219 28.9371 14.2545 26.2091 8.86867 20.826C3.46217 15.4209 0.73004 10.9397 0.750665 7.50635C0.76304 5.2376 1.95242 4.07573 2.39929 3.63985C2.42267 3.61098 2.50242 3.5326 2.52992 3.5051C4.50167 1.53198 5.83129 0.734475 7.15404 0.7496C8.68992 0.770225 9.78304 1.91973 11.1663 3.37585C11.5087 3.7361 11.8799 4.12798 12.2938 4.54048C14.3013 6.54798 13.7293 8.1856 13.27 9.5001C12.7695 10.9342 12.3364 12.1717 14.9297 14.765C17.5257 17.3582 18.7632 16.9251 20.1918 16.4205C21.5077 15.9612 23.1412 15.3865 25.1514 17.394C25.5584 17.801 25.9448 18.1681 26.3009 18.5077C27.7639 19.8979 28.9189 20.9965 28.9382 22.5365C28.9547 23.8496 28.1572 25.1875 26.1882 27.1579L25.3164 26.5666L26.0534 27.2871C25.6175 27.734 24.457 28.9247 22.1869 28.9371H22.1484Z" fill="#FEF5DE"/>
</g>
</svg>
