<svg viewBox="0 0 30 30" fill="none" xmlns="http://www.w3.org/2000/svg">
<path d="M27.5 26.5625C27.5 27.075 27.075 27.5 26.5625 27.5H3.4375C2.925 27.5 2.5 27.075 2.5 26.5625C2.5 26.05 2.925 25.625 3.4375 25.625H26.5625C27.075 25.625 27.5 26.05 27.5 26.5625Z" fill="#2D4C69"/>
<path d="M19.2375 5.64995L5.81255 19.075C5.30005 19.5875 4.47505 19.5875 3.97505 19.075H3.96255C2.22505 17.325 2.22505 14.5 3.96255 12.7625L12.9 3.82495C14.65 2.07495 17.475 2.07495 19.225 3.82495C19.7375 4.31245 19.7375 5.14995 19.2375 5.64995Z" fill="#2D4C69"/>
<path d="M26.025 10.6125L22.2125 6.80002C21.7 6.28752 20.875 6.28752 20.375 6.80002L6.95005 20.225C6.43755 20.725 6.43755 21.55 6.95005 22.0625L10.7625 25.8875C12.5125 27.625 15.3375 27.625 17.0875 25.8875L26.0125 16.95C27.7875 15.2 27.7875 12.3625 26.025 10.6125ZM15.95 21.9L14.4375 23.425C14.125 23.7375 13.6125 23.7375 13.2875 23.425C12.975 23.1125 12.975 22.6 13.2875 22.275L14.8125 20.75C15.1125 20.45 15.6375 20.45 15.95 20.75C16.2625 21.0625 16.2625 21.6 15.95 21.9ZM20.9125 16.9375L17.8625 20C17.55 20.3 17.0375 20.3 16.7125 20C16.4 19.6875 16.4 19.175 16.7125 18.85L19.775 15.7875C20.075 15.4875 20.6 15.4875 20.9125 15.7875C21.225 16.1125 21.225 16.625 20.9125 16.9375Z" fill="#2D4C69"/>
</svg>
