<svg viewBox="0 0 60 60" fill="none" xmlns="http://www.w3.org/2000/svg">
<path d="M53.825 27.1749L50.025 23.375C49.375 22.725 48.85 21.4499 48.85 20.5499V15.15C48.85 12.95 47.05 11.15 44.85 11.15H39.475C38.575 11.15 37.3 10.625 36.65 9.97495L32.85 6.17495C31.3 4.62495 28.75 4.62495 27.2 6.17495L23.35 9.97495C22.725 10.625 21.45 11.15 20.525 11.15H15.15C12.95 11.15 11.15 12.95 11.15 15.15V20.5249C11.15 21.4249 10.625 22.6999 9.97501 23.3499L6.17501 27.1499C4.62501 28.6999 4.62501 31.2499 6.17501 32.7999L9.97501 36.5999C10.625 37.25 11.15 38.5249 11.15 39.4249V44.7999C11.15 46.9999 12.95 48.7999 15.15 48.7999H20.525C21.425 48.7999 22.7 49.3249 23.35 49.9749L27.15 53.7749C28.7 55.3249 31.25 55.3249 32.8 53.7749L36.6 49.9749C37.25 49.3249 38.525 48.7999 39.425 48.7999H44.8C47 48.7999 48.8 46.9999 48.8 44.7999V39.4249C48.8 38.5249 49.325 37.25 49.975 36.5999L53.775 32.7999C55.4 31.2749 55.4 28.7249 53.825 27.1749ZM20 22.4999C20 21.1249 21.125 19.9999 22.5 19.9999C23.875 19.9999 25 21.1249 25 22.4999C25 23.8749 23.9 24.9999 22.5 24.9999C21.125 24.9999 20 23.8749 20 22.4999ZM23.825 38.8249C23.45 39.1999 22.975 39.3749 22.5 39.3749C22.025 39.3749 21.55 39.1999 21.175 38.8249C20.45 38.0999 20.45 36.8999 21.175 36.1749L36.175 21.1749C36.9 20.45 38.1 20.45 38.825 21.1749C39.55 21.9 39.55 23.0999 38.825 23.8249L23.825 38.8249ZM37.5 39.9999C36.1 39.9999 34.975 38.8749 34.975 37.4999C34.975 36.1249 36.1 34.9999 37.475 34.9999C38.85 34.9999 39.975 36.1249 39.975 37.4999C39.975 38.8749 38.875 39.9999 37.5 39.9999Z" fill="#2D4C69"/>
</svg>
