<svg viewBox="0 0 32 32" fill="none" xmlns="http://www.w3.org/2000/svg">
<path d="M16 2.66663C12.5066 2.66663 9.66663 5.50663 9.66663 8.99996C9.66663 12.4266 12.3466 15.2 15.84 15.32C15.9466 15.3066 16.0533 15.3066 16.1333 15.32C16.16 15.32 16.1733 15.32 16.2 15.32C16.2133 15.32 16.2133 15.32 16.2266 15.32C19.64 15.2 22.32 12.4266 22.3333 8.99996C22.3333 5.50663 19.4933 2.66663 16 2.66663Z" fill="#2D4C69"/>
<path d="M22.7733 18.8667C19.0533 16.3867 12.9866 16.3867 9.23995 18.8667C7.54661 20 6.61328 21.5334 6.61328 23.1734C6.61328 24.8134 7.54661 26.3334 9.22661 27.4534C11.0933 28.7067 13.5466 29.3334 15.9999 29.3334C18.4533 29.3334 20.9066 28.7067 22.7733 27.4534C24.4533 26.32 25.3866 24.8 25.3866 23.1467C25.3733 21.5067 24.4533 19.9867 22.7733 18.8667Z" fill="#2D4C69"/>
</svg>
