<svg viewBox="0 0 52 52" xmlns="http://www.w3.org/2000/svg">
<path d="M33.345 11.2883L36.4 17.3983C36.8117 18.2433 37.9167 19.045 38.8484 19.2183L44.3734 20.1283C47.905 20.7133 48.7284 23.27 46.1934 25.8267L41.8817 30.1383C41.1667 30.8533 40.755 32.2617 40.9934 33.28L42.2284 38.61C43.2034 42.8133 40.95 44.46 37.245 42.25L32.0667 39.1733C31.135 38.61 29.575 38.61 28.6434 39.1733L23.465 42.25C19.76 44.4383 17.5067 42.8133 18.4817 38.61L19.7167 33.28C19.9117 32.24 19.5 30.8317 18.785 30.1167L14.4734 25.805C11.9384 23.27 12.7617 20.7133 16.2934 20.1067L21.8184 19.1967C22.75 19.045 23.855 18.2217 24.2667 17.3767L27.3217 11.2667C28.99 7.97334 31.6767 7.97334 33.345 11.2883Z" />
<path d="M17.3333 12.4583H4.33325C3.44492 12.4583 2.70825 11.7216 2.70825 10.8333C2.70825 9.94498 3.44492 9.20831 4.33325 9.20831H17.3333C18.2216 9.20831 18.9583 9.94498 18.9583 10.8333C18.9583 11.7216 18.2216 12.4583 17.3333 12.4583Z" />
<path d="M10.8333 42.7917H4.33325C3.44492 42.7917 2.70825 42.055 2.70825 41.1667C2.70825 40.2784 3.44492 39.5417 4.33325 39.5417H10.8333C11.7216 39.5417 12.4583 40.2784 12.4583 41.1667C12.4583 42.055 11.7216 42.7917 10.8333 42.7917Z" />
<path d="M6.49992 27.625H4.33325C3.44492 27.625 2.70825 26.8883 2.70825 26C2.70825 25.1117 3.44492 24.375 4.33325 24.375H6.49992C7.38825 24.375 8.12492 25.1117 8.12492 26C8.12492 26.8883 7.38825 27.625 6.49992 27.625Z" />
</svg>
