<svg viewBox="0 0 56 56" fill="none" xmlns="http://www.w3.org/2000/svg">
<rect width="56" height="56" rx="28" fill="#FEF5DE"/>
<path d="M29.3756 37.8002C18.8524 37.8002 12.8502 30.4428 12.6001 18.2002H17.8713C18.0444 27.186 21.9305 30.9922 25.0086 31.777V18.2002H29.972V25.9499C33.0116 25.6164 36.2051 22.0849 37.2824 18.2002H42.2458C41.8399 20.2149 41.0306 22.1225 39.8687 23.8037C38.7069 25.4849 37.2173 26.9035 35.4933 27.9708C37.4177 28.946 39.1175 30.3263 40.4804 32.0206C41.8433 33.715 42.8385 35.6848 43.4001 37.8002H37.9365C37.4323 35.9628 36.4076 34.3181 34.9908 33.0721C33.574 31.8262 31.8282 31.0344 29.972 30.796V37.8002H29.3756V37.8002Z" fill="#2D4C69"/>
</svg>
